<svg id="visual" viewBox="0 0 900 600" width="900" height="600" xmlns="http://www.w3.org/2000/svg" xmlns:xlink="http://www.w3.org/1999/xlink" version="1.1"><path d="M0 380L15 398.2C30 416.3 60 452.7 90 472.7C120 492.7 150 496.3 180 486.8C210 477.3 240 454.7 270 439.3C300 424 330 416 360 423C390 430 420 452 450 471.2C480 490.3 510 506.7 540 509.2C570 511.7 600 500.3 630 499.3C660 498.3 690 507.7 720 495C750 482.3 780 447.7 810 425.5C840 403.3 870 393.7 885 388.8L900 384L900 601L885 601C870 601 840 601 810 601C780 601 750 601 720 601C690 601 660 601 630 601C600 601 570 601 540 601C510 601 480 601 450 601C420 601 390 601 360 601C330 601 300 601 270 601C240 601 210 601 180 601C150 601 120 601 90 601C60 601 30 601 15 601L0 601Z" fill="#FCAF3C" stroke-linecap="round" stroke-linejoin="miter"></path></svg>