<svg id="visual" viewBox="0 0 900 600" width="900" height="600" xmlns="http://www.w3.org/2000/svg" xmlns:xlink="http://www.w3.org/1999/xlink" version="1.1"><path d="M0 384L18.8 391.2C37.7 398.3 75.3 412.7 112.8 411.7C150.3 410.7 187.7 394.3 225.2 404.2C262.7 414 300.3 450 337.8 467.8C375.3 485.7 412.7 485.3 450.2 476.2C487.7 467 525.3 449 562.8 435.3C600.3 421.7 637.7 412.3 675.2 429.3C712.7 446.3 750.3 489.7 787.8 495C825.3 500.3 862.7 467.7 881.3 451.3L900 435L900 601L881.3 601C862.7 601 825.3 601 787.8 601C750.3 601 712.7 601 675.2 601C637.7 601 600.3 601 562.8 601C525.3 601 487.7 601 450.2 601C412.7 601 375.3 601 337.8 601C300.3 601 262.7 601 225.2 601C187.7 601 150.3 601 112.8 601C75.3 601 37.7 601 18.8 601L0 601Z" fill="#2596be" stroke-linecap="round" stroke-linejoin="miter"></path></svg>